
-: Cover :- 
 
http://desibbrg.net/imghost/show.php?img=430696_Pyar.Hi.Pyar.1969.DVDRiP.x264.AAC.Esubs.RRG.DADA..jpg.html




        http://desibbrg.org/images/25484321904717173497.jpg
    	http://desibbrg.org/images/91588616377598775619.jpg
    	http://desibbrg.org/images/27570114769636751108.jpg
    	http://desibbrg.org/images/48092930740527436878.jpg
    	http://desibbrg.org/images/77519049348627694767.jpg
    	http://desibbrg.org/images/92797798518167512737.jpg
    	http://desibbrg.org/images/53121446397575192423.jpg
    	http://desibbrg.org/images/49765154240454565913.jpg
    	http://desibbrg.org/images/17072704729797478391.jpg
    	http://desibbrg.org/images/09334697787704069062.jpg
     
http://desibbrg.net/imghost/show.php?img=430695_Pyar.Hi.Pyar.1969.DVDRiP.x264.AAC.Esubs.RRG.DADA.DBBIANS.Com.mp4thumbs2013.04.0511.36.07.jpg.html


-: Info :-  
 
http://www.imdb.com/title/tt0064857/

General

File size                        : 943 MiB
Duration                         : 2h 33mn
Overall bit rate                 : 860 Kbps


Video
Format                           : AVC
Format/Info                      : Advanced Video Codec
Format profile                   : Main@L3.0
Format settings, CABAC           : Yes
Format settings, ReFrames        : 3 frames
Duration                         : 2h 33mn
Bit rate                         : 723 Kbps
Width                            : 640 pixels
Height                           : 480 pixels
Display aspect ratio             : 4:3
Frame rate mode                  : Constant
Frame rate                       : 29.970 fps
Color space                      : YUV
Chroma subsampling               : 4:2:0
Bit depth                        : 8 bits
Scan type                        : Progressive
Bits/(Pixel*Frame)               : 0.079
Stream size                      : 793 MiB (84%)

Audio
Format                           : AAC
Format/Info                      : Advanced Audio Codec
Format version                   : Version 4
Format profile                   : LC
Format settings, SBR             : No
Duration                         : 2h 33mn
Bit rate                         : 129 Kbps
Channel(s)                       : 2 channels
Channel positions                : Front: L R
Sampling rate                    : 44.1 KHz
Bit depth                        : 16 bits
Stream size                      : 141 MiB (15%)





    Banner
    R S Productions

    Release Date
    1 Jan 1969

    Genre
    Romance

    Producer
    Satish Wagle

    Star Cast
    Dharmendra.... Vijay Pratap
    Vyjayantimala.... Kavita
    Pran.... Satish Raj - Ashok
    Mehmood.... Go-go
    Helen.... Cham Cham
    Madan Puri.... Dindayal
    Sulochana.... Laxmibai
    Sapru.... Diwan
    Manmohan
    Jr Mehmood.... Mehmoodali
    Dhoomal.... Cham Cham's dad
    Raj Mehra.... Kailashnath

    Ex. Co Producers
    Chandrakala


Music Director

    Shankarsinh Raghuwanshi
    Jaikishan Dayabhai Pankal

Color
C
Language
Hindi
Director

    Bappi Lahiri

Singers

    Asha Bhosle
    Mohammed Rafi

    Music Company
    Saregama-HMV



In order to win the heart of the beautiful Kavita, Vijay Pratap decides to masquerades as a wealthy industrialist and does succeed in winning Kavita's heart but Kavita has another charming admirer, Satish Raj, whose way-ward behavior cannot be understand by Kavita. But when he finds out about Kavita and Vijay's love he trys to create misunderstandings between the two, and does succeed in doing so and the couple split. He also gets to know the truth about Vijay and will choose all out effort to expose him. 
----------------------------------------------------
